<svg width="78" height="79" viewBox="0 0 78 79" version="1.1" xmlns="http://www.w3.org/2000/svg" xmlns:xlink="http://www.w3.org/1999/xlink">
<title>Group</title>
<desc>Created using Figma</desc>
<g id="Canvas" transform="translate(42 131)">
<g id="Group">
<g id="Vector">
<use xlink:href="#path0_fill" transform="translate(-41.55 -131)"/>
</g>
</g>
</g>
<defs>
<path id="path0_fill" d="M 76.35 1.85C 75.35 0.85 73.75 0.85 72.85 1.85L 39.05 35.55L 4.35 0.75C 3.35 -0.25 1.75 -0.25 0.85 0.75C -0.15 1.75 -0.15 3.35 0.85 4.25L 35.55 39.05L 0.75 73.85C -0.25 74.85 -0.25 76.45 0.75 77.35C 1.25 77.85 1.85 78.05 2.55 78.05C 3.25 78.05 3.85 77.85 4.35 77.35L 39.15 42.55L 72.85 76.25C 73.35 76.75 73.95 76.95 74.65 76.95C 75.35 76.95 75.95 76.75 76.45 76.25C 77.45 75.25 77.45 73.65 76.45 72.75L 42.65 39.05L 76.35 5.35C 77.25 4.35 77.25 2.75 76.35 1.85Z"/>
</defs>
</svg>
